<mxfile host="app.diagrams.net" agent="Mozilla/5.0 (Windows NT 10.0; Win64; x64) AppleWebKit/537.36 (KHTML, like Gecko) Chrome/128.0.0.0 Safari/537.36" version="24.7.12">
  <diagram name="Page-1" id="2YBvvXClWsGukQMizWep">
    <mxGraphModel dx="2071" dy="1758" grid="1" gridSize="10" guides="1" tooltips="1" connect="1" arrows="1" fold="1" page="1" pageScale="1" pageWidth="850" pageHeight="1100" math="0" shadow="0">
      <root>
        <mxCell id="0" />
        <mxCell id="1" parent="0" />
        <mxCell id="aQoF5F5WLzF5CA5ig07Y-1" value="Descripción: Un usuario desea intercambiar una criptomoneda por otra dentro de la billetera virtual." style="text;whiteSpace=wrap;html=1;fontColor=#1D3557;" parent="1" vertex="1">
          <mxGeometry x="-325" y="-610" width="530" height="50" as="geometry" />
        </mxCell>
        <mxCell id="aQoF5F5WLzF5CA5ig07Y-2" value="persona: Persona" style="shape=umlLifeline;perimeter=lifelinePerimeter;whiteSpace=wrap;html=1;container=0;dropTarget=0;collapsible=0;recursiveResize=0;outlineConnect=0;portConstraint=eastwest;newEdgeStyle={&quot;edgeStyle&quot;:&quot;elbowEdgeStyle&quot;,&quot;elbow&quot;:&quot;vertical&quot;,&quot;curved&quot;:0,&quot;rounded&quot;:0};fillColor=#A8DADC;strokeColor=#457B9D;labelBackgroundColor=none;fontColor=#1D3557;" parent="1" vertex="1">
          <mxGeometry x="-535" y="-500" width="100" height="1240" as="geometry" />
        </mxCell>
        <mxCell id="aQoF5F5WLzF5CA5ig07Y-3" value="" style="html=1;points=[];perimeter=orthogonalPerimeter;outlineConnect=0;targetShapes=umlLifeline;portConstraint=eastwest;newEdgeStyle={&quot;edgeStyle&quot;:&quot;elbowEdgeStyle&quot;,&quot;elbow&quot;:&quot;vertical&quot;,&quot;curved&quot;:0,&quot;rounded&quot;:0};labelBackgroundColor=none;fillColor=#A8DADC;strokeColor=#457B9D;fontColor=#1D3557;" parent="aQoF5F5WLzF5CA5ig07Y-2" vertex="1">
          <mxGeometry x="45" y="70" width="10" height="1150" as="geometry" />
        </mxCell>
        <mxCell id="aQoF5F5WLzF5CA5ig07Y-4" value="inicia sesión" style="html=1;verticalAlign=bottom;startArrow=none;endArrow=block;startSize=8;edgeStyle=elbowEdgeStyle;elbow=vertical;curved=0;rounded=0;labelBackgroundColor=none;strokeColor=#457B9D;fontColor=default;startFill=0;" parent="1" source="aQoF5F5WLzF5CA5ig07Y-3" target="aQoF5F5WLzF5CA5ig07Y-6" edge="1">
          <mxGeometry relative="1" as="geometry">
            <mxPoint x="-355" y="-490" as="sourcePoint" />
            <mxPoint x="-255" y="-400" as="targetPoint" />
            <Array as="points">
              <mxPoint x="-425" y="-390" />
            </Array>
          </mxGeometry>
        </mxCell>
        <mxCell id="aQoF5F5WLzF5CA5ig07Y-5" value="usuario: Usuario" style="shape=umlLifeline;perimeter=lifelinePerimeter;whiteSpace=wrap;html=1;container=0;dropTarget=0;collapsible=0;recursiveResize=0;outlineConnect=0;portConstraint=eastwest;newEdgeStyle={&quot;edgeStyle&quot;:&quot;elbowEdgeStyle&quot;,&quot;elbow&quot;:&quot;vertical&quot;,&quot;curved&quot;:0,&quot;rounded&quot;:0};fillColor=#A8DADC;strokeColor=#457B9D;labelBackgroundColor=none;fontColor=#1D3557;" parent="1" vertex="1">
          <mxGeometry x="-166" y="-500" width="100" height="1240" as="geometry" />
        </mxCell>
        <mxCell id="aQoF5F5WLzF5CA5ig07Y-6" value="" style="html=1;points=[];perimeter=orthogonalPerimeter;outlineConnect=0;targetShapes=umlLifeline;portConstraint=eastwest;newEdgeStyle={&quot;edgeStyle&quot;:&quot;elbowEdgeStyle&quot;,&quot;elbow&quot;:&quot;vertical&quot;,&quot;curved&quot;:0,&quot;rounded&quot;:0};labelBackgroundColor=none;fillColor=#A8DADC;strokeColor=#457B9D;fontColor=#1D3557;" parent="aQoF5F5WLzF5CA5ig07Y-5" vertex="1">
          <mxGeometry x="45" y="100" width="10" height="1120" as="geometry" />
        </mxCell>
        <mxCell id="aQoF5F5WLzF5CA5ig07Y-7" value="swap: Swap" style="shape=umlLifeline;perimeter=lifelinePerimeter;whiteSpace=wrap;html=1;container=0;dropTarget=0;collapsible=0;recursiveResize=0;outlineConnect=0;portConstraint=eastwest;newEdgeStyle={&quot;edgeStyle&quot;:&quot;elbowEdgeStyle&quot;,&quot;elbow&quot;:&quot;vertical&quot;,&quot;curved&quot;:0,&quot;rounded&quot;:0};fillColor=#A8DADC;strokeColor=#457B9D;labelBackgroundColor=none;fontColor=#1D3557;" parent="1" vertex="1">
          <mxGeometry x="15" y="-170" width="90" height="910" as="geometry" />
        </mxCell>
        <mxCell id="aQoF5F5WLzF5CA5ig07Y-8" value="" style="html=1;points=[];perimeter=orthogonalPerimeter;outlineConnect=0;targetShapes=umlLifeline;portConstraint=eastwest;newEdgeStyle={&quot;edgeStyle&quot;:&quot;elbowEdgeStyle&quot;,&quot;elbow&quot;:&quot;vertical&quot;,&quot;curved&quot;:0,&quot;rounded&quot;:0};labelBackgroundColor=none;fillColor=#A8DADC;strokeColor=#457B9D;fontColor=#1D3557;" parent="aQoF5F5WLzF5CA5ig07Y-7" vertex="1">
          <mxGeometry x="40" y="60" width="10" height="230" as="geometry" />
        </mxCell>
        <mxCell id="aQoF5F5WLzF5CA5ig07Y-9" value="swap" style="html=1;verticalAlign=bottom;startArrow=none;endArrow=block;startSize=8;edgeStyle=elbowEdgeStyle;elbow=vertical;curved=0;rounded=0;labelBackgroundColor=none;strokeColor=#457B9D;fontColor=default;startFill=0;dashed=1;entryX=-0.017;entryY=0.009;entryDx=0;entryDy=0;entryPerimeter=0;" parent="1" source="aQoF5F5WLzF5CA5ig07Y-6" edge="1">
          <mxGeometry relative="1" as="geometry">
            <mxPoint x="-109" y="-151" as="sourcePoint" />
            <mxPoint x="15.470000000000255" y="-151.01" as="targetPoint" />
            <Array as="points">
              <mxPoint x="-93" y="-151" />
            </Array>
          </mxGeometry>
        </mxCell>
        <mxCell id="aQoF5F5WLzF5CA5ig07Y-10" value="&lt;div style=&quot;background-color:#2f2f2f;padding:0px 0px 0px 2px;&quot;&gt;&lt;div style=&quot;color: rgb(204, 204, 204); font-family: Consolas; font-size: 12pt; white-space: pre;&quot;&gt;&lt;p style=&quot;margin:0;&quot;&gt;&lt;span style=&quot;color:#cc6c1d;&quot;&gt;public&lt;/span&gt;&lt;span style=&quot;color:#d9e8f7;&quot;&gt; &lt;/span&gt;&lt;span style=&quot;color:#cc6c1d;&quot;&gt;class&lt;/span&gt;&lt;span style=&quot;color:#d9e8f7;&quot;&gt; &lt;/span&gt;&lt;span style=&quot;color:#1290c3;&quot;&gt;Swap&lt;/span&gt;&lt;span style=&quot;color:#d9e8f7;&quot;&gt; &lt;/span&gt;&lt;span style=&quot;color:#f9faf4;&quot;&gt;{&lt;/span&gt;&lt;/p&gt;&lt;p style=&quot;margin:0;&quot;&gt;&lt;span style=&quot;color:#d9e8f7;&quot;&gt;&#x9;&lt;/span&gt;&lt;span style=&quot;color: rgb(18, 144, 195); text-decoration-line: underline; text-decoration-color: rgb(255, 0, 128); text-decoration-style: wavy;&quot;&gt;usuario&lt;/span&gt;&lt;span style=&quot;color:#d9e8f7;&quot;&gt; &lt;/span&gt;&lt;span style=&quot;color: rgb(102, 225, 248); text-decoration-line: underline; text-decoration-color: rgb(255, 0, 128); text-decoration-style: wavy;&quot;&gt;inicia&lt;/span&gt;&lt;span style=&quot;color:#d9e8f7;&quot;&gt; &lt;/span&gt;&lt;span style=&quot;color: rgb(217, 232, 247); text-decoration-line: underline; text-decoration-color: rgb(255, 0, 128); text-decoration-style: wavy;&quot;&gt;sesion&lt;/span&gt;&lt;/p&gt;&lt;p style=&quot;margin:0;&quot;&gt;&lt;span style=&quot;color:#d9e8f7;&quot;&gt;&#x9;si &lt;/span&gt;&lt;span style=&quot;color:#f9faf4;&quot;&gt;(&lt;/span&gt;&lt;span style=&quot;color: rgb(217, 232, 247); text-decoration-line: underline; text-decoration-color: rgb(255, 0, 128); text-decoration-style: wavy;&quot;&gt;usuario&lt;/span&gt;&lt;span style=&quot;color:#d9e8f7;&quot;&gt; no &lt;/span&gt;&lt;span style=&quot;color: rgb(217, 232, 247); text-decoration-line: underline; text-decoration-color: rgb(255, 0, 128); text-decoration-style: wavy;&quot;&gt;está&lt;/span&gt;&lt;span style=&quot;color:#d9e8f7;&quot;&gt; dado de &lt;/span&gt;&lt;span style=&quot;color: rgb(217, 232, 247); text-decoration-line: underline; text-decoration-color: rgb(255, 0, 128); text-decoration-style: wavy;&quot;&gt;baja&lt;/span&gt;&lt;span style=&quot;color:#f9faf4;&quot;&gt;)&lt;/span&gt;&lt;span style=&quot;color:#d9e8f7;&quot;&gt; &lt;/span&gt;&lt;span style=&quot;color: rgb(249, 250, 244); text-decoration-line: underline; text-decoration-color: rgb(255, 0, 128); text-decoration-style: wavy;&quot;&gt;{&lt;/span&gt;&lt;/p&gt;&lt;p style=&quot;margin:0;&quot;&gt;&lt;span style=&quot;color:#d9e8f7;&quot;&gt;&#x9;&#x9;&lt;/span&gt;&lt;span style=&quot;color: rgb(217, 232, 247); text-decoration-line: underline; text-decoration-color: rgb(255, 0, 128); text-decoration-style: wavy;&quot;&gt;si &lt;/span&gt;&lt;span style=&quot;color: rgb(249, 250, 244); text-decoration-line: underline; text-decoration-color: rgb(255, 0, 128); text-decoration-style: wavy;&quot;&gt;(&lt;/span&gt;&lt;span style=&quot;color: rgb(217, 232, 247); text-decoration-line: underline; text-decoration-color: rgb(255, 0, 128); text-decoration-style: wavy;&quot;&gt;usuario está verificado&lt;/span&gt;&lt;span style=&quot;color:#f9faf4;&quot;&gt;){&lt;/span&gt;&lt;/p&gt;&lt;p style=&quot;margin:0;&quot;&gt;&lt;span style=&quot;color:#d9e8f7;&quot;&gt;&#x9;&#x9;&#x9;si &lt;/span&gt;&lt;span style=&quot;color:#f9faf4;&quot;&gt;(&lt;/span&gt;&lt;span style=&quot;color: rgb(217, 232, 247); text-decoration-line: underline; text-decoration-color: rgb(255, 0, 128); text-decoration-style: wavy;&quot;&gt;usuario&lt;/span&gt;&lt;span style=&quot;color:#d9e8f7;&quot;&gt; está habilitado&lt;/span&gt;&lt;span style=&quot;color: rgb(249, 250, 244); text-decoration-line: underline; text-decoration-color: rgb(255, 0, 128); text-decoration-style: wavy;&quot;&gt;)&lt;/span&gt;&lt;span style=&quot;color:#f9faf4;&quot;&gt;{&lt;/span&gt;&lt;/p&gt;&lt;p style=&quot;margin:0;&quot;&gt;&lt;span style=&quot;color:#d9e8f7;&quot;&gt;&#x9;&#x9;&#x9;&#x9;opcionTransaccion &lt;/span&gt;&lt;span style=&quot;color:#e6e6fa;&quot;&gt;=&lt;/span&gt;&lt;span style=&quot;color:#d9e8f7;&quot;&gt; &lt;/span&gt;&lt;/p&gt;&lt;p style=&quot;margin:0;&quot;&gt;&lt;span style=&quot;color:#d9e8f7;&quot;&gt;&#x9;&#x9;&#x9;&#x9;si &lt;/span&gt;&lt;span style=&quot;color:#f9faf4;&quot;&gt;(&lt;/span&gt;&lt;span style=&quot;color:#d9e8f7;&quot;&gt;opcionTransaccion&lt;/span&gt;&lt;span style=&quot;color:#e6e6fa;&quot;&gt;==&lt;/span&gt;&lt;span style=&quot;color:#d9e8f7;&quot;&gt;Swap&lt;/span&gt;&lt;span style=&quot;color: rgb(249, 250, 244); text-decoration-line: underline; text-decoration-color: rgb(255, 0, 128); text-decoration-style: wavy;&quot;&gt;)&lt;/span&gt;&lt;span style=&quot;color:#f9faf4;&quot;&gt;{&lt;/span&gt;&lt;/p&gt;&lt;p style=&quot;margin:0;&quot;&gt;&lt;span style=&quot;color:#d9e8f7;&quot;&gt;&#x9;&#x9;&#x9;&#x9;&#x9;usuario elige &lt;/span&gt;&lt;span style=&quot;color: rgb(217, 232, 247); text-decoration-line: underline; text-decoration-color: rgb(255, 0, 128); text-decoration-style: wavy;&quot;&gt;moneda&lt;/span&gt;&lt;span style=&quot;color:#d9e8f7;&quot;&gt; para intercambiar&lt;/span&gt;&lt;/p&gt;&lt;p style=&quot;margin:0;&quot;&gt;&lt;span style=&quot;color:#d9e8f7;&quot;&gt;&#x9;&#x9;&#x9;&#x9;&#x9;&lt;/span&gt;&lt;span style=&quot;color: rgb(217, 232, 247); text-decoration-line: underline; text-decoration-color: rgb(255, 0, 128); text-decoration-style: wavy;&quot;&gt;usuario&lt;/span&gt;&lt;span style=&quot;color:#d9e8f7;&quot;&gt; elige monedaSwap &lt;/span&gt;&lt;span style=&quot;color: rgb(217, 232, 247); text-decoration-line: underline; text-decoration-color: rgb(255, 0, 128); text-decoration-style: wavy;&quot;&gt;para&lt;/span&gt;&lt;span style=&quot;color:#d9e8f7;&quot;&gt; &lt;/span&gt;&lt;span style=&quot;color: rgb(217, 232, 247); text-decoration-line: underline; text-decoration-color: rgb(255, 0, 128); text-decoration-style: wavy;&quot;&gt;recibir&lt;/span&gt;&lt;span style=&quot;color:#d9e8f7;&quot;&gt;&#x9;&#x9;&#x9;&#x9;&#x9;&lt;/span&gt;&lt;/p&gt;&lt;p style=&quot;margin:0;&quot;&gt;&lt;span style=&quot;color:#d9e8f7;&quot;&gt;&#x9;&#x9;&#x9;&#x9;&#x9;si &lt;/span&gt;&lt;span style=&quot;color:#f9faf4;&quot;&gt;(&lt;/span&gt;&lt;span style=&quot;color:#d9e8f7;&quot;&gt;hayStock&lt;/span&gt;&lt;span style=&quot;color:#f9faf4;&quot;&gt;(&lt;/span&gt;&lt;span style=&quot;color:#d9e8f7;&quot;&gt;moneda&lt;/span&gt;&lt;span style=&quot;color:#e6e6fa;&quot;&gt;,&lt;/span&gt;&lt;span style=&quot;color:#d9e8f7;&quot;&gt;monedaSwap&lt;/span&gt;&lt;span style=&quot;color:#f9faf4;&quot;&gt;))&lt;/span&gt;&lt;span style=&quot;color:#d9e8f7;&quot;&gt; &lt;/span&gt;&lt;span style=&quot;color:#f9faf4;&quot;&gt;{&lt;/span&gt;&lt;span style=&quot;color:#d9e8f7;&quot;&gt;&#x9;&#x9;&#x9;&#x9;&#x9;&#x9;&#x9;&#x9;&#x9;&#x9;&#x9;&lt;/span&gt;&lt;/p&gt;&lt;p style=&quot;margin:0;&quot;&gt;&lt;span style=&quot;color:#d9e8f7;&quot;&gt;&#x9;&#x9;&#x9;&#x9;&#x9;&#x9;aplicación muestra &lt;/span&gt;&lt;span style=&quot;color: rgb(217, 232, 247); text-decoration-line: underline; text-decoration-color: rgb(255, 0, 128); text-decoration-style: wavy;&quot;&gt;la&lt;/span&gt;&lt;span style=&quot;color:#d9e8f7;&quot;&gt; tasa de &lt;/span&gt;&lt;span style=&quot;color: rgb(217, 232, 247); text-decoration-line: underline; text-decoration-color: rgb(255, 0, 128); text-decoration-style: wavy;&quot;&gt;intercambio&lt;/span&gt;&lt;span style=&quot;color:#d9e8f7;&quot;&gt; actual y &lt;/span&gt;&lt;span style=&quot;color: rgb(217, 232, 247); text-decoration-line: underline; text-decoration-color: rgb(255, 0, 128); text-decoration-style: wavy;&quot;&gt;la&lt;/span&gt;&lt;span style=&quot;color:#d9e8f7;&quot;&gt; comisión &lt;/span&gt;&lt;span style=&quot;color: rgb(217, 232, 247); text-decoration-line: underline; text-decoration-color: rgb(255, 0, 128); text-decoration-style: wavy;&quot;&gt;aplicable&lt;/span&gt;&lt;/p&gt;&lt;p style=&quot;margin:0;&quot;&gt;&lt;span style=&quot;color:#d9e8f7;&quot;&gt;&#x9;&#x9;&#x9;&#x9;&#x9;&#x9;si &lt;/span&gt;&lt;span style=&quot;color:#f9faf4;&quot;&gt;(&lt;/span&gt;&lt;span style=&quot;color:#d9e8f7;&quot;&gt;usuario confirma &lt;/span&gt;&lt;span style=&quot;color: rgb(217, 232, 247); text-decoration-line: underline; text-decoration-color: rgb(255, 0, 128); text-decoration-style: wavy;&quot;&gt;transaccion&lt;/span&gt;&lt;span style=&quot;color:#f9faf4;&quot;&gt;)&lt;/span&gt;&lt;span style=&quot;color:#d9e8f7;&quot;&gt; &lt;/span&gt;&lt;span style=&quot;color:#f9faf4;&quot;&gt;{&lt;/span&gt;&lt;/p&gt;&lt;p style=&quot;margin:0;&quot;&gt;&lt;span style=&quot;color:#d9e8f7;&quot;&gt;&#x9;&#x9;&#x9;&#x9;&#x9;&#x9;&#x9;aplicacion traduce &lt;/span&gt;&lt;span style=&quot;color: rgb(217, 232, 247); text-decoration-line: underline; text-decoration-color: rgb(255, 0, 128); text-decoration-style: wavy;&quot;&gt;monedas&lt;/span&gt;&lt;span style=&quot;color:#d9e8f7;&quot;&gt; y acredita &lt;/span&gt;&lt;span style=&quot;color: rgb(217, 232, 247); text-decoration-line: underline; text-decoration-color: rgb(255, 0, 128); text-decoration-style: wavy;&quot;&gt;en&lt;/span&gt;&lt;span style=&quot;color:#d9e8f7;&quot;&gt; la billetera &lt;/span&gt;&lt;span style=&quot;color: rgb(217, 232, 247); text-decoration-line: underline; text-decoration-color: rgb(255, 0, 128); text-decoration-style: wavy;&quot;&gt;del&lt;/span&gt;&lt;span style=&quot;color:#d9e8f7;&quot;&gt; usuario&lt;/span&gt;&lt;/p&gt;&lt;p style=&quot;margin:0;&quot;&gt;&lt;span style=&quot;color:#d9e8f7;&quot;&gt;&#x9;&#x9;&#x9;&#x9;&#x9;&#x9;&#x9;aplicacion &lt;/span&gt;&lt;span style=&quot;color: rgb(217, 232, 247); text-decoration-line: underline; text-decoration-color: rgb(255, 0, 128); text-decoration-style: wavy;&quot;&gt;envia&lt;/span&gt;&lt;span style=&quot;color:#d9e8f7;&quot;&gt; notificacion al &lt;/span&gt;&lt;span style=&quot;color: rgb(217, 232, 247); text-decoration-line: underline; text-decoration-color: rgb(255, 0, 128); text-decoration-style: wavy;&quot;&gt;usuario&lt;/span&gt;&lt;span style=&quot;color:#d9e8f7;&quot;&gt; con detalles &lt;/span&gt;&lt;span style=&quot;color: rgb(217, 232, 247); text-decoration-line: underline; text-decoration-color: rgb(255, 0, 128); text-decoration-style: wavy;&quot;&gt;del&lt;/span&gt;&lt;span style=&quot;color:#d9e8f7;&quot;&gt; swap&lt;/span&gt;&lt;/p&gt;&lt;p style=&quot;margin:0;&quot;&gt;&lt;span style=&quot;color:#d9e8f7;&quot;&gt;&#x9;&#x9;&#x9;&#x9;&#x9;&#x9;&#x9;&lt;/span&gt;&lt;span style=&quot;color: rgb(217, 232, 247); text-decoration-line: underline; text-decoration-color: rgb(255, 0, 128); text-decoration-style: wavy;&quot;&gt;mostrarMsj&lt;/span&gt;&lt;span style=&quot;color:#f9faf4;&quot;&gt;(&lt;/span&gt;&lt;span style=&quot;color:#17c6a3;&quot;&gt;&quot;Transaccion realizada con éxito.&quot;&lt;/span&gt;&lt;span style=&quot;color: rgb(249, 250, 244); text-decoration-line: underline; text-decoration-color: rgb(255, 0, 128); text-decoration-style: wavy;&quot;&gt;)&lt;/span&gt;&lt;/p&gt;&lt;p style=&quot;margin:0;&quot;&gt;&lt;span style=&quot;color:#d9e8f7;&quot;&gt;&#x9;&#x9;&#x9;&#x9;&#x9;&#x9;&lt;/span&gt;&lt;span style=&quot;color:#f9faf4;&quot;&gt;}&lt;/span&gt;&lt;span style=&quot;color:#d9e8f7;&quot;&gt;&#x9;&#x9;&#x9;&#x9;&#x9;&lt;/span&gt;&lt;/p&gt;&lt;p style=&quot;margin:0;&quot;&gt;&lt;span style=&quot;color:#d9e8f7;&quot;&gt;&#x9;&#x9;&#x9;&#x9;&#x9;&#x9;si &lt;/span&gt;&lt;span style=&quot;color: rgb(217, 232, 247); text-decoration-line: underline; text-decoration-color: rgb(255, 0, 128); text-decoration-style: wavy;&quot;&gt;no&lt;/span&gt;&lt;span style=&quot;color:#d9e8f7;&quot;&gt; &lt;/span&gt;&lt;/p&gt;&lt;p style=&quot;margin:0;&quot;&gt;&lt;span style=&quot;color:#d9e8f7;&quot;&gt;&#x9;&#x9;&#x9;&#x9;&#x9;&#x9;&#x9;mostrarMsj&lt;/span&gt;&lt;span style=&quot;color:#f9faf4;&quot;&gt;(&lt;/span&gt;&lt;span style=&quot;color:#17c6a3;&quot;&gt;&quot;Transaccion cancelada.&quot;&lt;/span&gt;&lt;span style=&quot;color: rgb(249, 250, 244); text-decoration-line: underline; text-decoration-color: rgb(255, 0, 128); text-decoration-style: wavy;&quot;&gt;)&lt;/span&gt;&lt;/p&gt;&lt;p style=&quot;margin:0;&quot;&gt;&lt;span style=&quot;color:#d9e8f7;&quot;&gt;&#x9;&#x9;&#x9;&#x9;&#x9;&lt;/span&gt;&lt;span style=&quot;color:#f9faf4;&quot;&gt;}&lt;/span&gt;&lt;/p&gt;&lt;p style=&quot;margin:0;&quot;&gt;&lt;span style=&quot;color:#d9e8f7;&quot;&gt;&#x9;&#x9;&#x9;&#x9;&#x9;si &lt;/span&gt;&lt;span style=&quot;color: rgb(217, 232, 247); text-decoration-line: underline; text-decoration-color: rgb(255, 0, 128); text-decoration-style: wavy;&quot;&gt;no&lt;/span&gt;&lt;span style=&quot;color:#d9e8f7;&quot;&gt; &lt;/span&gt;&lt;/p&gt;&lt;p style=&quot;margin:0;&quot;&gt;&lt;span style=&quot;color:#d9e8f7;&quot;&gt;&#x9;&#x9;&#x9;&#x9;&#x9;&#x9;mostrarMsj&lt;/span&gt;&lt;span style=&quot;color:#f9faf4;&quot;&gt;(&lt;/span&gt;&lt;span style=&quot;color:#17c6a3;&quot;&gt;&quot;Fondos insuficientes en el sistema.&quot;&lt;/span&gt;&lt;span style=&quot;color:#f9faf4;&quot;&gt;)&lt;/span&gt;&lt;/p&gt;&lt;p style=&quot;margin:0;&quot;&gt;&lt;span style=&quot;color:#d9e8f7;&quot;&gt;&#x9;&#x9;&#x9;&#x9;&lt;/span&gt;&lt;span style=&quot;color: rgb(249, 250, 244); text-decoration-line: underline; text-decoration-color: rgb(255, 0, 128); text-decoration-style: wavy;&quot;&gt;}&lt;/span&gt;&lt;/p&gt;&lt;p style=&quot;margin:0;&quot;&gt;&lt;span style=&quot;color:#d9e8f7;&quot;&gt;&#x9;&#x9;&#x9;&lt;/span&gt;&lt;span style=&quot;color:#f9faf4;&quot;&gt;}&lt;/span&gt;&lt;/p&gt;&lt;p style=&quot;margin:0;&quot;&gt;&lt;span style=&quot;color:#d9e8f7;&quot;&gt;&#x9;&#x9;&#x9;&lt;/span&gt;&lt;span style=&quot;color:#1290c3;&quot;&gt;si&lt;/span&gt;&lt;span style=&quot;color:#d9e8f7;&quot;&gt; &lt;/span&gt;&lt;span style=&quot;color: rgb(102, 225, 248); text-decoration-line: underline; text-decoration-color: rgb(255, 0, 128); text-decoration-style: wavy;&quot;&gt;no&lt;/span&gt;&lt;span style=&quot;color:#d9e8f7;&quot;&gt; &lt;/span&gt;&lt;/p&gt;&lt;p style=&quot;margin:0;&quot;&gt;&lt;span style=&quot;color:#d9e8f7;&quot;&gt;&#x9;&#x9;&#x9;&#x9;mostrarMsj&lt;/span&gt;&lt;span style=&quot;color:#f9faf4;&quot;&gt;(&lt;/span&gt;&lt;span style=&quot;color:#17c6a3;&quot;&gt;&quot;Usuario inhabilitado (OFAC).&quot;&lt;/span&gt;&lt;span style=&quot;color:#f9faf4;&quot;&gt;)&lt;/span&gt;&lt;/p&gt;&lt;p style=&quot;margin:0;&quot;&gt;&lt;span style=&quot;color:#d9e8f7;&quot;&gt;&#x9;&#x9;&lt;/span&gt;&lt;span style=&quot;color: rgb(249, 250, 244); text-decoration-line: underline; text-decoration-color: rgb(255, 0, 128); text-decoration-style: wavy;&quot;&gt;}&lt;/span&gt;&lt;/p&gt;&lt;p style=&quot;margin:0;&quot;&gt;&lt;span style=&quot;color:#d9e8f7;&quot;&gt;&#x9;&#x9;si &lt;/span&gt;&lt;span style=&quot;color: rgb(217, 232, 247); text-decoration-line: underline; text-decoration-color: rgb(255, 0, 128); text-decoration-style: wavy;&quot;&gt;no&lt;/span&gt;&lt;span style=&quot;color:#d9e8f7;&quot;&gt; &lt;/span&gt;&lt;/p&gt;&lt;p style=&quot;margin:0;&quot;&gt;&lt;span style=&quot;color:#d9e8f7;&quot;&gt;&#x9;&#x9;&#x9;mostrarMsj&lt;/span&gt;&lt;span style=&quot;color:#f9faf4;&quot;&gt;(&lt;/span&gt;&lt;span style=&quot;color:#17c6a3;&quot;&gt;&quot;Usuario no está verificado, no puede acceder a todas las funcionalidades de la billetera.&quot;&lt;/span&gt;&lt;span style=&quot;color: rgb(249, 250, 244); text-decoration-line: underline; text-decoration-color: rgb(255, 0, 128); text-decoration-style: wavy;&quot;&gt;)&lt;/span&gt;&lt;/p&gt;&lt;p style=&quot;margin:0;&quot;&gt;&lt;span style=&quot;color:#d9e8f7;&quot;&gt;&#x9;&lt;/span&gt;&lt;span style=&quot;color:#f9faf4;&quot;&gt;}&lt;/span&gt;&lt;/p&gt;&lt;p style=&quot;margin:0;&quot;&gt;&lt;span style=&quot;color:#d9e8f7;&quot;&gt;&#x9;&lt;/span&gt;&lt;span style=&quot;color: rgb(217, 232, 247); text-decoration-line: underline; text-decoration-color: rgb(255, 0, 128); text-decoration-style: wavy;&quot;&gt;si&lt;/span&gt;&lt;span style=&quot;color:#d9e8f7;&quot;&gt; &lt;/span&gt;&lt;span style=&quot;color: rgb(217, 232, 247); text-decoration-line: underline; text-decoration-color: rgb(255, 0, 128); text-decoration-style: wavy;&quot;&gt;no&lt;/span&gt;&lt;span style=&quot;color:#d9e8f7;&quot;&gt; &lt;/span&gt;&lt;/p&gt;&lt;p style=&quot;margin:0;&quot;&gt;&lt;span style=&quot;color:#d9e8f7;&quot;&gt;&#x9;&#x9;&lt;/span&gt;&lt;span style=&quot;color: rgb(217, 232, 247); text-decoration-line: underline; text-decoration-color: rgb(255, 0, 128); text-decoration-style: wavy;&quot;&gt;mostrarMsj&lt;/span&gt;&lt;span style=&quot;color: rgb(249, 250, 244); text-decoration-line: underline; text-decoration-color: rgb(255, 0, 128); text-decoration-style: wavy;&quot;&gt;(&lt;/span&gt;&lt;span style=&quot;color: rgb(23, 198, 163); text-decoration-line: underline; text-decoration-color: rgb(255, 0, 128); text-decoration-style: wavy;&quot;&gt;&quot;Usuario dado de baja.&quot;&lt;/span&gt;&lt;span style=&quot;color:#f9faf4;&quot;&gt;)&lt;/span&gt;&lt;/p&gt;&lt;p style=&quot;margin:0;&quot;&gt;&lt;span style=&quot;color:#f9faf4;&quot;&gt;}&lt;/span&gt;&lt;/p&gt;&lt;/div&gt;&lt;/div&gt;" style="text;whiteSpace=wrap;html=1;fontColor=#1D3557;movable=1;resizable=1;rotatable=1;deletable=1;editable=1;locked=0;connectable=1;" parent="1" vertex="1">
          <mxGeometry x="835" y="-160" width="1290" height="630" as="geometry" />
        </mxCell>
        <mxCell id="aQoF5F5WLzF5CA5ig07Y-11" value="alt" style="shape=umlFrame;whiteSpace=wrap;html=1;pointerEvents=0;fillColor=#A8DADC;strokeColor=#457B9D;movable=1;resizable=1;rotatable=1;deletable=1;editable=1;locked=0;connectable=1;labelBackgroundColor=none;fontColor=#1D3557;" parent="1" vertex="1">
          <mxGeometry x="-435" y="-310" width="970" height="890" as="geometry" />
        </mxCell>
        <mxCell id="aQoF5F5WLzF5CA5ig07Y-12" value="[usuario.getDadoDeBaja() == false]" style="text;whiteSpace=wrap;html=1;fontColor=#1D3557;fontStyle=1;fontSize=9;" parent="1" vertex="1">
          <mxGeometry x="-465.00250000000005" y="-349.93023255813955" width="227.5" height="47.44186046511628" as="geometry" />
        </mxCell>
        <mxCell id="aQoF5F5WLzF5CA5ig07Y-13" value="[usuario.getDadoDeBaja() == true]" style="text;whiteSpace=wrap;html=1;fontColor=#1D3557;fontStyle=1;fontSize=9;" parent="1" vertex="1">
          <mxGeometry x="-465.00250000000005" y="607.9962790697673" width="227.5" height="47.44186046511628" as="geometry" />
        </mxCell>
        <mxCell id="aQoF5F5WLzF5CA5ig07Y-14" value="[usuario.getSeguridad().getVerificado() == true]" style="text;whiteSpace=wrap;html=1;fontColor=#1D3557;fontStyle=1;fontSize=9;" parent="1" vertex="1">
          <mxGeometry x="-435" y="-280" width="210" height="47.44" as="geometry" />
        </mxCell>
        <mxCell id="aQoF5F5WLzF5CA5ig07Y-15" value="[usuario.getSeguridad().getVerificado() == false]" style="text;whiteSpace=wrap;html=1;fontColor=#1D3557;fontStyle=1;fontSize=9;" parent="1" vertex="1">
          <mxGeometry x="-435.00250000000005" y="499.9997674418605" width="227.5" height="47.44186046511628" as="geometry" />
        </mxCell>
        <mxCell id="aQoF5F5WLzF5CA5ig07Y-16" value="alt" style="shape=umlFrame;whiteSpace=wrap;html=1;pointerEvents=0;fillColor=#A8DADC;strokeColor=#457B9D;movable=1;resizable=1;rotatable=1;deletable=1;editable=1;locked=0;connectable=1;labelBackgroundColor=none;fontColor=#1D3557;" parent="1" vertex="1">
          <mxGeometry x="-465" y="-380" width="1020" height="1070" as="geometry" />
        </mxCell>
        <mxCell id="aQoF5F5WLzF5CA5ig07Y-17" value="alt" style="shape=umlFrame;whiteSpace=wrap;html=1;pointerEvents=0;fillColor=#A8DADC;strokeColor=#457B9D;movable=1;resizable=1;rotatable=1;deletable=1;editable=1;locked=0;connectable=1;labelBackgroundColor=none;fontColor=#1D3557;" parent="1" vertex="1">
          <mxGeometry x="-406" y="-247.44" width="921" height="727.44" as="geometry" />
        </mxCell>
        <mxCell id="aQoF5F5WLzF5CA5ig07Y-18" value="[usuario.chequearHabilitado() == true]" style="text;whiteSpace=wrap;html=1;fontColor=#1D3557;fontStyle=1;fontSize=9;" parent="1" vertex="1">
          <mxGeometry x="-406" y="-217" width="210" height="47.44" as="geometry" />
        </mxCell>
        <mxCell id="aQoF5F5WLzF5CA5ig07Y-19" value="[usuario.chequearHabilitado() == false]" style="text;whiteSpace=wrap;html=1;fontColor=#1D3557;fontStyle=1;fontSize=9;" parent="1" vertex="1">
          <mxGeometry x="-406" y="400" width="210" height="47.44" as="geometry" />
        </mxCell>
        <mxCell id="aQoF5F5WLzF5CA5ig07Y-20" value="opt" style="shape=umlFrame;whiteSpace=wrap;html=1;pointerEvents=0;fillColor=#A8DADC;strokeColor=#457B9D;movable=1;resizable=1;rotatable=1;deletable=1;editable=1;locked=0;connectable=1;labelBackgroundColor=none;fontColor=#1D3557;" parent="1" vertex="1">
          <mxGeometry x="-375" y="-182.44" width="870" height="562.44" as="geometry" />
        </mxCell>
        <mxCell id="aQoF5F5WLzF5CA5ig07Y-21" value="[opcionTransaccion == swap]" style="text;whiteSpace=wrap;html=1;fontColor=#1D3557;fontStyle=1;fontSize=9;" parent="1" vertex="1">
          <mxGeometry x="-375" y="-152" width="210" height="47.44" as="geometry" />
        </mxCell>
        <mxCell id="aQoF5F5WLzF5CA5ig07Y-22" value="alt" style="shape=umlFrame;whiteSpace=wrap;html=1;pointerEvents=0;fillColor=#A8DADC;strokeColor=#457B9D;movable=1;resizable=1;rotatable=1;deletable=1;editable=1;locked=0;connectable=1;labelBackgroundColor=none;fontColor=#1D3557;" parent="1" vertex="1">
          <mxGeometry x="-345" y="-40" width="820" height="410" as="geometry" />
        </mxCell>
        <mxCell id="aQoF5F5WLzF5CA5ig07Y-23" value="[hayStock() == true]" style="text;whiteSpace=wrap;html=1;fontColor=#1D3557;fontStyle=1;fontSize=9;" parent="1" vertex="1">
          <mxGeometry x="-345" y="-10" width="210" height="47.44" as="geometry" />
        </mxCell>
        <mxCell id="aQoF5F5WLzF5CA5ig07Y-24" value="[hayStock() == false]" style="text;whiteSpace=wrap;html=1;fontColor=#1D3557;fontStyle=1;fontSize=9;" parent="1" vertex="1">
          <mxGeometry x="-345" y="300" width="210" height="47.44" as="geometry" />
        </mxCell>
        <mxCell id="aQoF5F5WLzF5CA5ig07Y-25" value="alt" style="shape=umlFrame;whiteSpace=wrap;html=1;pointerEvents=0;fillColor=#A8DADC;strokeColor=#457B9D;movable=1;resizable=1;rotatable=1;deletable=1;editable=1;locked=0;connectable=1;labelBackgroundColor=none;fontColor=#1D3557;" parent="1" vertex="1">
          <mxGeometry x="-315" y="50" width="770" height="210" as="geometry" />
        </mxCell>
        <mxCell id="aQoF5F5WLzF5CA5ig07Y-26" value="[confirmarTransaccion==true]" style="text;whiteSpace=wrap;html=1;fontColor=#1D3557;fontStyle=1;fontSize=9;" parent="1" vertex="1">
          <mxGeometry x="-315" y="80" width="210" height="47.44" as="geometry" />
        </mxCell>
        <mxCell id="aQoF5F5WLzF5CA5ig07Y-27" value="[confirmarTransaccion==false]" style="text;whiteSpace=wrap;html=1;fontColor=#1D3557;fontStyle=1;fontSize=9;" parent="1" vertex="1">
          <mxGeometry x="-315" y="196.27999999999997" width="210" height="47.44" as="geometry" />
        </mxCell>
        <mxCell id="aQoF5F5WLzF5CA5ig07Y-28" value="aplicacion: Aplicacion" style="shape=umlLifeline;perimeter=lifelinePerimeter;whiteSpace=wrap;html=1;container=0;dropTarget=0;collapsible=0;recursiveResize=0;outlineConnect=0;portConstraint=eastwest;newEdgeStyle={&quot;edgeStyle&quot;:&quot;elbowEdgeStyle&quot;,&quot;elbow&quot;:&quot;vertical&quot;,&quot;curved&quot;:0,&quot;rounded&quot;:0};fillColor=#A8DADC;strokeColor=#457B9D;labelBackgroundColor=none;fontColor=#1D3557;" parent="1" vertex="1">
          <mxGeometry x="195" y="-500" width="100" height="1240" as="geometry" />
        </mxCell>
        <mxCell id="aQoF5F5WLzF5CA5ig07Y-29" value="" style="html=1;points=[];perimeter=orthogonalPerimeter;outlineConnect=0;targetShapes=umlLifeline;portConstraint=eastwest;newEdgeStyle={&quot;edgeStyle&quot;:&quot;elbowEdgeStyle&quot;,&quot;elbow&quot;:&quot;vertical&quot;,&quot;curved&quot;:0,&quot;rounded&quot;:0};labelBackgroundColor=none;fillColor=#A8DADC;strokeColor=#457B9D;fontColor=#1D3557;" parent="aQoF5F5WLzF5CA5ig07Y-28" vertex="1">
          <mxGeometry x="45" y="70" width="10" height="1150" as="geometry" />
        </mxCell>
        <mxCell id="aQoF5F5WLzF5CA5ig07Y-30" value="miBilletera: Billetera" style="shape=umlLifeline;perimeter=lifelinePerimeter;whiteSpace=wrap;html=1;container=0;dropTarget=0;collapsible=0;recursiveResize=0;outlineConnect=0;portConstraint=eastwest;newEdgeStyle={&quot;edgeStyle&quot;:&quot;elbowEdgeStyle&quot;,&quot;elbow&quot;:&quot;vertical&quot;,&quot;curved&quot;:0,&quot;rounded&quot;:0};fillColor=#A8DADC;strokeColor=#457B9D;labelBackgroundColor=none;fontColor=#1D3557;" parent="1" vertex="1">
          <mxGeometry x="355" y="-500" width="100" height="1240" as="geometry" />
        </mxCell>
        <mxCell id="aQoF5F5WLzF5CA5ig07Y-31" value="" style="html=1;points=[];perimeter=orthogonalPerimeter;outlineConnect=0;targetShapes=umlLifeline;portConstraint=eastwest;newEdgeStyle={&quot;edgeStyle&quot;:&quot;elbowEdgeStyle&quot;,&quot;elbow&quot;:&quot;vertical&quot;,&quot;curved&quot;:0,&quot;rounded&quot;:0};labelBackgroundColor=none;fillColor=#A8DADC;strokeColor=#457B9D;fontColor=#1D3557;" parent="aQoF5F5WLzF5CA5ig07Y-30" vertex="1">
          <mxGeometry x="45" y="410" width="10" height="30" as="geometry" />
        </mxCell>
        <mxCell id="aQoF5F5WLzF5CA5ig07Y-32" value="" style="html=1;points=[];perimeter=orthogonalPerimeter;outlineConnect=0;targetShapes=umlLifeline;portConstraint=eastwest;newEdgeStyle={&quot;edgeStyle&quot;:&quot;elbowEdgeStyle&quot;,&quot;elbow&quot;:&quot;vertical&quot;,&quot;curved&quot;:0,&quot;rounded&quot;:0};labelBackgroundColor=none;fillColor=#A8DADC;strokeColor=#457B9D;fontColor=#1D3557;" parent="aQoF5F5WLzF5CA5ig07Y-30" vertex="1">
          <mxGeometry x="45" y="580" width="10" height="40" as="geometry" />
        </mxCell>
        <mxCell id="aQoF5F5WLzF5CA5ig07Y-33" value="chequearSaldo" style="html=1;verticalAlign=bottom;startArrow=none;endArrow=block;startSize=8;edgeStyle=elbowEdgeStyle;elbow=vertical;curved=0;rounded=0;labelBackgroundColor=none;strokeColor=#457B9D;fontColor=default;startFill=0;" parent="1" source="aQoF5F5WLzF5CA5ig07Y-8" target="aQoF5F5WLzF5CA5ig07Y-31" edge="1">
          <mxGeometry x="0.4328" relative="1" as="geometry">
            <mxPoint x="75" y="-101" as="sourcePoint" />
            <mxPoint x="400" y="-101" as="targetPoint" />
            <Array as="points">
              <mxPoint x="365" y="-75" />
            </Array>
            <mxPoint as="offset" />
          </mxGeometry>
        </mxCell>
        <mxCell id="aQoF5F5WLzF5CA5ig07Y-34" value="swapearMonedas" style="html=1;verticalAlign=bottom;startArrow=none;endArrow=block;startSize=8;edgeStyle=elbowEdgeStyle;elbow=vertical;curved=0;rounded=0;labelBackgroundColor=none;strokeColor=#457B9D;fontColor=default;startFill=0;" parent="1" source="aQoF5F5WLzF5CA5ig07Y-8" target="aQoF5F5WLzF5CA5ig07Y-32" edge="1">
          <mxGeometry x="0.4769" relative="1" as="geometry">
            <mxPoint x="82.5" y="50" as="sourcePoint" />
            <mxPoint x="407.5" y="50" as="targetPoint" />
            <Array as="points">
              <mxPoint x="235" y="100" />
            </Array>
            <mxPoint as="offset" />
          </mxGeometry>
        </mxCell>
        <mxCell id="aQoF5F5WLzF5CA5ig07Y-35" value="notificar" style="html=1;verticalAlign=bottom;endArrow=open;dashed=1;endSize=8;edgeStyle=elbowEdgeStyle;elbow=vertical;curved=0;rounded=0;labelBackgroundColor=none;strokeColor=#457B9D;fontColor=default;" parent="1" edge="1">
          <mxGeometry x="0.2166" relative="1" as="geometry">
            <mxPoint x="-110.5" y="649.05" as="targetPoint" />
            <Array as="points">
              <mxPoint x="135.5" y="649.05" />
              <mxPoint x="100.5" y="679.05" />
            </Array>
            <mxPoint x="240.5" y="649.05" as="sourcePoint" />
            <mxPoint as="offset" />
          </mxGeometry>
        </mxCell>
        <mxCell id="aQoF5F5WLzF5CA5ig07Y-36" value="notificar" style="html=1;verticalAlign=bottom;endArrow=open;dashed=1;endSize=8;edgeStyle=elbowEdgeStyle;elbow=vertical;curved=0;rounded=0;labelBackgroundColor=none;strokeColor=#457B9D;fontColor=default;" parent="1" source="aQoF5F5WLzF5CA5ig07Y-29" target="aQoF5F5WLzF5CA5ig07Y-6" edge="1">
          <mxGeometry x="0.2156" relative="1" as="geometry">
            <mxPoint x="-116" y="710" as="targetPoint" />
            <Array as="points">
              <mxPoint x="95" y="540" />
              <mxPoint x="65" y="550" />
              <mxPoint x="125" y="710" />
              <mxPoint x="145" y="700" />
              <mxPoint x="101" y="710" />
            </Array>
            <mxPoint x="246" y="710" as="sourcePoint" />
            <mxPoint as="offset" />
          </mxGeometry>
        </mxCell>
        <mxCell id="aQoF5F5WLzF5CA5ig07Y-37" value="notificar" style="html=1;verticalAlign=bottom;endArrow=open;dashed=1;endSize=8;edgeStyle=elbowEdgeStyle;elbow=vertical;curved=0;rounded=0;labelBackgroundColor=none;strokeColor=#457B9D;fontColor=default;" parent="1" edge="1">
          <mxGeometry x="0.2156" relative="1" as="geometry">
            <mxPoint x="-110.5" y="439.04999999999995" as="targetPoint" />
            <Array as="points">
              <mxPoint x="101.5" y="439.04999999999995" />
            </Array>
            <mxPoint x="240.5" y="439.04999999999995" as="sourcePoint" />
            <mxPoint as="offset" />
          </mxGeometry>
        </mxCell>
        <mxCell id="aQoF5F5WLzF5CA5ig07Y-38" value="notificar" style="html=1;verticalAlign=bottom;endArrow=open;dashed=1;endSize=8;edgeStyle=elbowEdgeStyle;elbow=vertical;curved=0;rounded=0;labelBackgroundColor=none;strokeColor=#457B9D;fontColor=default;" parent="1" edge="1">
          <mxGeometry x="0.2156" relative="1" as="geometry">
            <mxPoint x="-110.5" y="334.52" as="targetPoint" />
            <Array as="points">
              <mxPoint x="101.5" y="334.52" />
            </Array>
            <mxPoint x="240.5" y="334.52" as="sourcePoint" />
            <mxPoint as="offset" />
          </mxGeometry>
        </mxCell>
        <mxCell id="aQoF5F5WLzF5CA5ig07Y-39" value="notificar" style="html=1;verticalAlign=bottom;endArrow=open;dashed=1;endSize=8;edgeStyle=elbowEdgeStyle;elbow=vertical;curved=0;rounded=0;labelBackgroundColor=none;strokeColor=#457B9D;fontColor=default;" parent="1" edge="1">
          <mxGeometry x="0.2156" relative="1" as="geometry">
            <mxPoint x="-110.5" y="230" as="targetPoint" />
            <Array as="points">
              <mxPoint x="101.5" y="230" />
            </Array>
            <mxPoint x="240.5" y="230" as="sourcePoint" />
            <mxPoint as="offset" />
          </mxGeometry>
        </mxCell>
        <mxCell id="aQoF5F5WLzF5CA5ig07Y-40" value="" style="line;strokeWidth=1;fillColor=none;align=left;verticalAlign=middle;spacingTop=-1;spacingLeft=3;spacingRight=3;rotatable=1;labelPosition=right;points=[];portConstraint=eastwest;strokeColor=#457B9D;dashed=1;perimeterSpacing=0;movable=1;resizable=1;deletable=1;editable=1;locked=0;connectable=1;labelBackgroundColor=none;fontColor=#1D3557;" parent="1" vertex="1">
          <mxGeometry x="-455" y="594" width="1000" height="8" as="geometry" />
        </mxCell>
        <mxCell id="aQoF5F5WLzF5CA5ig07Y-41" value="chequearStock" style="html=1;verticalAlign=bottom;startArrow=none;endArrow=block;startSize=8;edgeStyle=elbowEdgeStyle;elbow=vertical;curved=0;rounded=0;labelBackgroundColor=none;strokeColor=#457B9D;fontColor=default;startFill=0;" parent="1" source="aQoF5F5WLzF5CA5ig07Y-8" target="aQoF5F5WLzF5CA5ig07Y-29" edge="1">
          <mxGeometry relative="1" as="geometry">
            <mxPoint x="105" y="-150" as="sourcePoint" />
            <mxPoint x="229.99999999999955" y="-149.80999999999972" as="targetPoint" />
            <Array as="points">
              <mxPoint x="75" y="-100" />
            </Array>
          </mxGeometry>
        </mxCell>
        <mxCell id="aQoF5F5WLzF5CA5ig07Y-42" value="notificarTransaccionRealizada" style="html=1;verticalAlign=bottom;endArrow=open;dashed=1;endSize=8;edgeStyle=elbowEdgeStyle;elbow=vertical;curved=0;rounded=0;labelBackgroundColor=none;strokeColor=#457B9D;fontColor=default;" parent="1" edge="1">
          <mxGeometry x="-0.4558" relative="1" as="geometry">
            <mxPoint x="-110.5" y="160" as="targetPoint" />
            <Array as="points">
              <mxPoint x="101.5" y="160" />
            </Array>
            <mxPoint x="240.5" y="160" as="sourcePoint" />
            <mxPoint x="1" as="offset" />
          </mxGeometry>
        </mxCell>
        <mxCell id="aQoF5F5WLzF5CA5ig07Y-43" value="mostrarTasaYComision" style="html=1;verticalAlign=bottom;endArrow=open;dashed=1;endSize=8;edgeStyle=elbowEdgeStyle;elbow=vertical;curved=0;rounded=0;labelBackgroundColor=none;strokeColor=#457B9D;fontColor=default;" parent="1" edge="1">
          <mxGeometry x="-0.5128" relative="1" as="geometry">
            <mxPoint x="-110.5" y="13.220000000000027" as="targetPoint" />
            <Array as="points">
              <mxPoint x="101.5" y="13.220000000000027" />
            </Array>
            <mxPoint x="240.5" y="13.220000000000027" as="sourcePoint" />
            <mxPoint x="1" as="offset" />
          </mxGeometry>
        </mxCell>
        <mxCell id="aQoF5F5WLzF5CA5ig07Y-44" value="" style="line;strokeWidth=1;fillColor=none;align=left;verticalAlign=middle;spacingTop=3;spacingLeft=6;spacingRight=3;rotatable=1;labelPosition=right;points=[];portConstraint=eastwest;strokeColor=#457B9D;dashed=1;perimeterSpacing=0;movable=1;resizable=1;deletable=1;editable=1;locked=0;connectable=1;labelBackgroundColor=none;fontColor=#1D3557;fontStyle=1;spacing=6;" parent="1" vertex="1">
          <mxGeometry x="-305" y="184.77999999999997" width="750" height="8" as="geometry" />
        </mxCell>
        <mxCell id="aQoF5F5WLzF5CA5ig07Y-45" value="" style="line;strokeWidth=1;fillColor=none;align=left;verticalAlign=middle;spacingTop=3;spacingLeft=6;spacingRight=3;rotatable=1;labelPosition=right;points=[];portConstraint=eastwest;strokeColor=#457B9D;dashed=1;perimeterSpacing=0;movable=1;resizable=1;deletable=1;editable=1;locked=0;connectable=1;labelBackgroundColor=none;fontColor=#1D3557;fontStyle=1;spacing=6;" parent="1" vertex="1">
          <mxGeometry x="-335" y="286" width="800" height="8" as="geometry" />
        </mxCell>
        <mxCell id="aQoF5F5WLzF5CA5ig07Y-46" value="" style="line;strokeWidth=1;fillColor=none;align=left;verticalAlign=middle;spacingTop=3;spacingLeft=6;spacingRight=3;rotatable=1;labelPosition=right;points=[];portConstraint=eastwest;strokeColor=#457B9D;dashed=1;perimeterSpacing=0;movable=1;resizable=1;deletable=1;editable=1;locked=0;connectable=1;labelBackgroundColor=none;fontColor=#1D3557;fontStyle=1;spacing=6;" parent="1" vertex="1">
          <mxGeometry x="-395.5" y="390" width="900" height="8" as="geometry" />
        </mxCell>
        <mxCell id="aQoF5F5WLzF5CA5ig07Y-47" value="" style="line;strokeWidth=1;fillColor=none;align=left;verticalAlign=middle;spacingTop=-1;spacingLeft=3;spacingRight=3;rotatable=1;labelPosition=right;points=[];portConstraint=eastwest;strokeColor=#457B9D;dashed=1;perimeterSpacing=0;movable=1;resizable=1;deletable=1;editable=1;locked=0;connectable=1;labelBackgroundColor=none;fontColor=#1D3557;" parent="1" vertex="1">
          <mxGeometry x="-425" y="490" width="950" height="8" as="geometry" />
        </mxCell>
      </root>
    </mxGraphModel>
  </diagram>
</mxfile>
